<svg width="1020" height="740" viewBox="0 0 1020 740" fill="none" xmlns="http://www.w3.org/2000/svg">
<rect width="1020" height="740" fill="#5C6A80"/>
<circle cx="368" cy="287" r="50" fill="#A8AA48"/>
<path d="M859 320L1019.21 740H698.785L859 320Z" fill="#4C7D3A"/>
<path d="M256.963 363L394.963 736L0.954376 731L98 565L144 467L195 369L256.963 363Z" fill="#4C7D3A"/>
<path d="M560 337L733.205 739.75H386.795L560 337Z" fill="#4C7D3A"/>
<path d="M553.5 165L554.959 169.491H559.682L555.861 172.267L557.321 176.759L553.5 173.983L549.679 176.759L551.139 172.267L547.318 169.491H552.041L553.5 165Z" fill="#C4C4C4"/>
<path d="M912.5 102L915.531 107.528H925.339L917.404 110.944L920.435 116.472L912.5 113.056L904.565 116.472L907.596 110.944L899.661 107.528H909.469L912.5 102Z" fill="#C4C4C4"/>
<path d="M388 126L389.572 135.328H394.657L390.543 141.093L392.114 150.422L388 144.657L383.886 150.422L385.457 141.093L381.343 135.328H386.428L388 126Z" fill="#C4C4C4"/>
<path d="M253 182L255.694 186.491H264.413L257.359 189.267L260.053 193.759L253 190.983L245.947 193.759L248.641 189.267L241.587 186.491H250.306L253 182Z" fill="#C4C4C4"/>
<path d="M686.5 281L689.306 288.601H698.388L691.041 293.298L693.847 300.899L686.5 296.202L679.153 300.899L681.959 293.298L674.612 288.601H683.694L686.5 281Z" fill="#C4C4C4"/>
<path d="M100 195L101.572 202.601H106.657L102.543 207.298L104.114 214.899L100 210.202L95.8855 214.899L97.4571 207.298L93.3426 202.601H98.4284L100 195Z" fill="#C4C4C4"/>
<path d="M368.5 410L371.306 416.564H380.388L373.041 420.621L375.847 427.186L368.5 423.129L361.153 427.186L363.959 420.621L356.612 416.564H365.694L368.5 410Z" fill="#C4C4C4"/>
<path d="M36 355L39.5922 360.528H51.2169L41.8123 363.944L45.4046 369.472L36 366.056L26.5954 369.472L30.1877 363.944L20.7831 360.528H32.4078L36 355Z" fill="#C4C4C4"/>
<path d="M778.5 388L781.531 393.528H791.339L783.404 396.944L786.435 402.472L778.5 399.056L770.565 402.472L773.596 396.944L765.661 393.528H775.469L778.5 388Z" fill="#C4C4C4"/>
<path d="M933.5 270L938.103 275.873L952.997 275.873L940.947 279.503L945.55 285.377L933.5 281.747L921.45 285.377L926.053 279.503L914.003 275.873L928.897 275.873L933.5 270Z" fill="#C4C4C4"/>
<path d="M134 46L137.143 65.3475H147.315L139.086 77.305L142.229 96.6525L134 84.695L125.771 96.6525L128.914 77.305L120.685 65.3475H130.857L134 46Z" fill="#C4C4C4"/>
<path d="M564.5 0L563.49 5.52786H560.22L562.865 8.94427L561.855 14.4721L564.5 11.0557L567.145 14.4721L566.135 8.94427L568.78 5.52786H565.51L564.5 0Z" fill="#C4C4C4"/>
<path d="M327.5 6L330.98 12.2188H342.241L333.131 16.0623L336.611 22.2812L327.5 18.4377L318.389 22.2812L321.869 16.0623L312.759 12.2188H324.02L327.5 6Z" fill="#C4C4C4"/>
<path d="M744.5 46L747.98 55.6738H759.241L750.131 61.6525L753.611 71.3262L744.5 65.3475L735.389 71.3262L738.869 61.6525L729.759 55.6738H741.02L744.5 46Z" fill="#C4C4C4"/>
</svg>
